# xmcd
#
# Track frame offsets: 
#        180
#        10752
#        21174
#        34155
#        46936
#        59778
#        67566
#        77587
#        89559
#        109074
#        123052
#        136824
#        145567
#        157932
#        169166
#        182534
#        194826
#        206578
#        214703
#        226300
#
# Disc length: 3197 seconds
#
# Revision: 7
# Processed by: cddbd v1.5.2PL0 Copyright (c) Steve Scherf et al.
# Submitted via: ExactAudioCopyFreeDBPlugin 1.0
#
DISCID=070c7b14
DTITLE=Diverse Interpreten - 20 Greatest Line Dance Party Hits
DYEAR=2001
DGENRE=Country
TTITLE0=Dolly Parton - Honky Tonk Angels
TTITLE1=Willie Nelson and Waylon Jennings - White Lightnin'
TTITLE2=Kenny Rogers - Ruby Don't Take Your Love To Town
TTITLE3=Lynn Anderson - I Fall To Pieces
TTITLE4=Johny Russell - Chrystal Chandeliers
TTITLE5=Johny Cash - Hey Good Lookin'
TTITLE6=Gene Watson - Pick The Wildwood Flowers
TTITLE7=Tex Williams - Smoke, Smoke, Smoke The Cigarette
TTITLE8=The Bellamy Brothers - If I Said You Had A Beautifull Body Wou
TTITLE8=ld You Hold It Against Me
TTITLE9=Rockin' Sidney - My Toot Toot
TTITLE10=Jerry Lee Lewis - Cold Cold Heart
TTITLE11=Willie Nelson and Waylon Jennings - Love's Gonna Live Here
TTITLE12=Kenny Rogers - Reuben James
TTITLE13=Tammy Wynette - D.I.V.O.R.C.E
TTITLE14=Lynn Anderson - Rosegarden
TTITLE15=Nitty Gritty Dirt Band - High Horse
TTITLE16=Patsy Cline - Walkin' After Midnight
TTITLE17=Willie Nelson - Things To Remember
TTITLE18=Lynn Anderson - That'll Be The Day
TTITLE19=George Jones - A Good Year For The Roses
EXTD=YEAR: 2001
EXTT0=
EXTT1=
EXTT2=
EXTT3=
EXTT4=
EXTT5=
EXTT6=
EXTT7=
EXTT8=
EXTT9=
EXTT10=
EXTT11=
EXTT12=
EXTT13=
EXTT14=
EXTT15=
EXTT16=
EXTT17=
EXTT18=
EXTT19=
PLAYORDER=
